<svg width="16" height="16" viewBox="0 0 16 16" fill="none" xmlns="http://www.w3.org/2000/svg">
<path d="M8.00001 1.33331C11.682 1.33331 14.6667 4.31798 14.6667 7.99998C14.6667 11.682 11.682 14.6666 8.00001 14.6666C4.31801 14.6666 1.33334 11.682 1.33334 7.99998C1.33334 4.31798 4.31801 1.33331 8.00001 1.33331ZM6.58601 5.64265C6.46632 5.52181 6.30496 5.45129 6.13498 5.44552C5.96499 5.43976 5.79923 5.49918 5.67162 5.61162C5.54401 5.72407 5.46421 5.88104 5.44854 6.0504C5.43287 6.21976 5.48253 6.3887 5.58734 6.52265L5.64334 6.58598L7.05668 7.99931L5.64334 9.41398C5.52251 9.53367 5.45199 9.69503 5.44622 9.86501C5.44045 10.035 5.49988 10.2008 5.61232 10.3284C5.72477 10.456 5.88173 10.5358 6.05109 10.5514C6.22045 10.5671 6.3894 10.5175 6.52334 10.4126L6.58601 10.3573L8.00001 8.94265L9.41401 10.3573C9.5337 10.4781 9.69506 10.5487 9.86504 10.5544C10.035 10.5602 10.2008 10.5008 10.3284 10.3883C10.456 10.2759 10.5358 10.1189 10.5515 9.94956C10.5671 9.7802 10.5175 9.61126 10.4127 9.47731L10.3573 9.41398L8.94268 7.99998L10.3573 6.58598C10.4782 6.46629 10.5487 6.30493 10.5545 6.13495C10.5602 5.96496 10.5008 5.7992 10.3884 5.67159C10.2759 5.54398 10.119 5.46418 9.94959 5.44851C9.78023 5.43284 9.61129 5.4825 9.47734 5.58731L9.41401 5.64265L8.00001 7.05731L6.58601 5.64265Z" fill="#FF2D55"/>
</svg>
