<svg width="16" height="16" viewBox="0 0 16 16" fill="none" xmlns="http://www.w3.org/2000/svg">
<path d="M7.99999 1.33334C11.682 1.33334 14.6667 4.31801 14.6667 8.00001C14.6667 11.682 11.682 14.6667 7.99999 14.6667C4.31799 14.6667 1.33333 11.682 1.33333 8.00001C1.33333 4.31801 4.31799 1.33334 7.99999 1.33334ZM7.99999 4.66668C7.83671 4.6667 7.6791 4.72665 7.55708 4.83515C7.43506 4.94366 7.3571 5.09318 7.33799 5.25534L7.33333 5.33334V7.33334H5.33333C5.16341 7.33353 4.99997 7.3986 4.87642 7.51524C4.75286 7.63189 4.6785 7.79131 4.66855 7.96094C4.65859 8.13057 4.71378 8.2976 4.82284 8.4279C4.9319 8.5582 5.0866 8.64194 5.25533 8.66201L5.33333 8.66668H7.33333V10.6667C7.33352 10.8366 7.39858 11 7.51523 11.1236C7.63187 11.2471 7.7913 11.3215 7.96092 11.3315C8.13055 11.3414 8.29758 11.2862 8.42788 11.1772C8.55818 11.0681 8.64193 10.9134 8.66199 10.7447L8.66666 10.6667V8.66668H10.6667C10.8366 8.66649 11 8.60142 11.1236 8.48478C11.2471 8.36813 11.3215 8.20871 11.3314 8.03908C11.3414 7.86945 11.2862 7.70242 11.1772 7.57212C11.0681 7.44182 10.9134 7.35808 10.7447 7.33801L10.6667 7.33334H8.66666V5.33334C8.66666 5.15653 8.59642 4.98696 8.4714 4.86194C8.34637 4.73691 8.17681 4.66668 7.99999 4.66668Z" fill="#007AFF"/>
</svg>
