<svg width="16" height="16" viewBox="0 0 16 16" fill="none" xmlns="http://www.w3.org/2000/svg">
<path opacity="0.5" d="M4.00001 12.6667V4.94273L2.47136 6.47137C2.21101 6.73172 1.789 6.73172 1.52865 6.47137C1.2683 6.21102 1.2683 5.78902 1.52865 5.52867L4.19532 2.862L4.24415 2.81773C4.36278 2.72051 4.51194 2.66669 4.66667 2.66669C4.84348 2.66669 5.013 2.73698 5.13803 2.862L7.80469 5.52867L7.85027 5.57945C8.06383 5.8413 8.04877 6.2273 7.80469 6.47137C7.56062 6.71545 7.17462 6.73051 6.91277 6.51695L6.86199 6.47137L5.33334 4.94273V12.6667C5.33334 13.0349 5.03486 13.3334 4.66667 13.3334C4.29848 13.3334 4.00001 13.0349 4.00001 12.6667Z" fill="#5856D6"/>
<path d="M11.3333 2.66669C10.9651 2.66669 10.6667 2.96516 10.6667 3.33335V11.0573L9.13802 9.52867L9.08724 9.48309C8.82539 9.26953 8.43939 9.28459 8.19531 9.52867C7.95123 9.77274 7.93617 10.1587 8.14974 10.4206L8.19531 10.4714L10.862 13.138C10.987 13.2631 11.1565 13.3334 11.3333 13.3334C11.5101 13.3334 11.6797 13.2631 11.8047 13.138L14.4714 10.4714C14.7317 10.211 14.7317 9.78902 14.4714 9.52867C14.211 9.26832 13.789 9.26832 13.5286 9.52867L12 11.0573V3.33335C12 2.96516 11.7015 2.66669 11.3333 2.66669Z" fill="#5856D6"/>
</svg>
